<svg xmlns="http://www.w3.org/2000/svg" viewBox="0 0 103.75 101.87"><defs><style>.a{fill:#fff;}.b{fill:#28234d;}.c{fill:#27aae1;}.d{fill:#d3202e;}</style></defs><title>customs-brokerage-global-trade</title><circle class="a" cx="48.81" cy="53.05" r="47.02" transform="translate(-23.22 50.06) rotate(-45)"/><path class="b" d="M48.81,101.87A48.81,48.81,0,0,1,14.3,18.54a48.81,48.81,0,1,1,69,69A48.5,48.5,0,0,1,48.81,101.87Zm0-94a45.22,45.22,0,0,0-32,77.2,45.22,45.22,0,1,0,64-63.95A44.94,44.94,0,0,0,48.81,7.83Z"/><path class="a" d="M81.27,23.06l-9.46-.62a8.9,8.9,0,0,0-9.47,8.34L61.79,40a8.89,8.89,0,0,0,7.6,9.34l2.67.39A8.88,8.88,0,0,1,78.9,54.9l4.76,14.76a2.17,2.17,0,0,0,3.92.09c2.65-5.35,9.79-9.53,8.08-20.08a53.88,53.88,0,0,0-7.45-21.11C86.5,25.62,84.66,23.28,81.27,23.06Z"/><path class="b" d="M85.64,72.74h-.08A3.93,3.93,0,0,1,82,70.4l0-.09L77.23,55.55a7.1,7.1,0,0,0-5.43-4l-2.67-.38A10.71,10.71,0,0,1,60,39.89l.56-9.22a10.67,10.67,0,0,1,11.38-10l9.46.62h0c4.25.28,6.54,3.23,8.37,6.38a55.48,55.48,0,0,1,7.67,21.73C98.79,57.74,95,62.58,92,66.46a25.71,25.71,0,0,0-2.8,4.08A3.92,3.92,0,0,1,85.64,72.74ZM85.33,69a.35.35,0,0,0,.3.16A.34.34,0,0,0,86,69a28.45,28.45,0,0,1,3.19-4.7C92,60.57,95,56.77,93.88,50a52.4,52.4,0,0,0-7.22-20.5c-1.63-2.8-3-4.45-5.51-4.61h0l-9.46-.62a7.12,7.12,0,0,0-7.56,6.66l-.55,9.22a7.13,7.13,0,0,0,6.07,7.45l2.66.39a10.63,10.63,0,0,1,8.23,6.22l0,.09Z"/><path class="a" d="M43.78,6.3s-2.7,6,0,6,10.07-6,10.07-6A52.49,52.49,0,0,0,43.78,6.3Z"/><path class="b" d="M43.78,14.12a2.84,2.84,0,0,1-2.46-1.28c-.69-1.07-.72-2.59-.08-4.78a21.62,21.62,0,0,1,.9-2.49l.4-.9,1-.14A52.79,52.79,0,0,1,54,4.52l4.35.42L55,7.69c-.07.07-1.92,1.57-4.14,3.1C46.52,13.77,44.74,14.12,43.78,14.12ZM45,8a13.26,13.26,0,0,0-.65,2.42A23.35,23.35,0,0,0,48.8,7.84,35.89,35.89,0,0,0,45,8Z"/><path class="a" d="M20.29,54.39,32,58.15a4.57,4.57,0,0,0,1.47.24h5a4.79,4.79,0,0,1,4.28,6.93L36.38,78a4.82,4.82,0,0,0-.07,4.13l3.33,7.32a2.25,2.25,0,0,1-3.19,2.87l-9.8-5.77a4.81,4.81,0,0,1-2.16-2.73l-1.88-6.18a4.79,4.79,0,0,0-1.82-2.51l-5.42-3.83a4.79,4.79,0,0,1-2-4.3l.7-8.46A4.78,4.78,0,0,1,20.29,54.39Z"/><path class="b" d="M37.61,94.46a4.14,4.14,0,0,1-2.07-.57l-9.8-5.77a6.53,6.53,0,0,1-3-3.76l-1.89-6.17a3,3,0,0,0-1.14-1.57l-5.42-3.83a6.65,6.65,0,0,1-2.77-5.92l.7-8.46a6.58,6.58,0,0,1,8.58-5.73l11.71,3.77a3.1,3.1,0,0,0,.92.14h5a6.58,6.58,0,0,1,5.89,9.53L38,78.82a3,3,0,0,0-.05,2.58l3.33,7.33a4,4,0,0,1-1,4.68A4.06,4.06,0,0,1,37.61,94.46ZM18.81,56a2.92,2.92,0,0,0-1.65.51,3,3,0,0,0-1.33,2.24l-.69,8.47a3,3,0,0,0,1.26,2.69l5.42,3.82a6.6,6.6,0,0,1,2.5,3.46l1.89,6.18A3,3,0,0,0,27.56,85l9.8,5.77a.42.42,0,0,0,.53-.05.41.41,0,0,0,.11-.52l-3.33-7.33a6.52,6.52,0,0,1,.11-5.67l6.35-12.71a3,3,0,0,0-2.67-4.33h-5a6.57,6.57,0,0,1-2-.32L19.74,56.09A3.33,3.33,0,0,0,18.81,56Z"/><path class="a" d="M16.21,54.93S.78,45.15,6.16,33.24,24.21,12.8,26.65,11.58s1.88,2.86,0,5.24-5,5.64-1.08,5.6,7.14-5.07,9.79-2.69S37.21,29,34,30.32s-5.83-.25-7.94,2.92S22.76,43.55,21,44.08s-7.45-5-7.65-3.18,2.7,2.57,3,5.78S13.73,51.23,16.21,54.93Z"/><path class="b" d="M16.21,56.72a1.86,1.86,0,0,1-1-.27,34.69,34.69,0,0,1-7.48-6.77C3.15,44,2,38,4.53,32.5c5.72-12.69,19-21.35,21.32-22.53a2.77,2.77,0,0,1,3.56.51,4.28,4.28,0,0,1,.43,3.85,10,10,0,0,1-1.78,3.6c-.22.29-.46.58-.71.89-.38.46-1,1.17-1.38,1.77A10.13,10.13,0,0,0,29.39,19c2-1.21,4.68-2.86,7.17-.62,1.77,1.59,2.56,4.65,2,7.79-.48,2.82-1.92,5-3.85,5.78a12.07,12.07,0,0,1-3.89.81c-1.71.13-2.44.24-3.25,1.45a26.63,26.63,0,0,0-2.21,5.24c-1.17,3.35-2,5.77-3.88,6.33-1.13.34-2.38-.14-3.76-.94a6.39,6.39,0,0,1,.36,1.68,8.46,8.46,0,0,1-.69,3.84c-.49,1.34-.74,2,.29,3.55a1.79,1.79,0,0,1-1.49,2.79Zm10-42.81C22.38,16.33,12.36,23.87,7.8,34c-1.93,4.28-1,8.8,2.77,13.45a28.07,28.07,0,0,0,3,3.17A12.9,12.9,0,0,1,14,49.15a5.09,5.09,0,0,0,.48-2.32,4.11,4.11,0,0,0-1.38-2.54,4.52,4.52,0,0,1-1.59-3.59,2.15,2.15,0,0,1,1.23-1.76c1.4-.66,2.83.27,5,1.69a23.48,23.48,0,0,0,2.66,1.58A28.39,28.39,0,0,0,22,38.29a28,28,0,0,1,2.62-6c1.8-2.71,4.1-2.89,5.94-3a8.75,8.75,0,0,0,2.8-.54c.75-.31,1.43-1.55,1.69-3.07.32-1.87,0-3.77-.88-4.52-.19-.18-.31-.24-.7-.13a10.59,10.59,0,0,0-2.2,1.14,11.27,11.27,0,0,1-5.67,2.13c-1.76,0-2.93-.53-3.46-1.64-.92-1.91.71-3.91,2.44-6l.67-.83A6.11,6.11,0,0,0,26.21,13.91Z"/><path class="c" d="M83.34,37.38v0Z"/><path class="b" d="M83.34,39.17a1.79,1.79,0,0,1-1.79-1.79V1.8a1.8,1.8,0,1,1,3.59,0V37.38A1.8,1.8,0,0,1,83.34,39.17Z"/><polygon class="d" points="83.34 1.8 101.96 1.8 95.96 8.29 101.96 14.79 83.34 14.79 83.34 1.8"/><path class="b" d="M102,16.59H83.34a1.79,1.79,0,0,1-1.79-1.8V1.8A1.79,1.79,0,0,1,83.34,0H102a1.78,1.78,0,0,1,1.64,1.08A1.78,1.78,0,0,1,103.28,3L98.4,8.3l4.88,5.28a1.8,1.8,0,0,1-1.32,3ZM85.14,13H97.86L94.64,9.51a1.78,1.78,0,0,1,0-2.43l3.22-3.49H85.14Z"/><path class="b" d="M37,72.74a1.79,1.79,0,0,1-1.56-.91L11.77,29.93a1.83,1.83,0,0,1,0-1.69l2.06-4.09a1.78,1.78,0,0,1,2-.94l62.57,15a1.85,1.85,0,0,1,1.13.84L84,46.69a1.76,1.76,0,0,1,.17,1.4,1.81,1.81,0,0,1-.89,1.1L44.08,69.54l-.06,0-6.3,3A1.73,1.73,0,0,1,37,72.74ZM15.37,29,37.69,68.61l4.76-2.27L79.91,46.87l-3.12-5.32L16.36,27Z"/><path class="d" d="M15.39,25a5.11,5.11,0,1,1-5.11-5.1A5.11,5.11,0,0,1,15.39,25Z"/><path class="b" d="M10.28,31.86A6.91,6.91,0,1,1,17.19,25,6.92,6.92,0,0,1,10.28,31.86Zm0-10.22A3.32,3.32,0,1,0,13.6,25,3.31,3.31,0,0,0,10.28,21.64Z"/><path class="d" d="M87.52,42.48a5.11,5.11,0,1,1-5.11-5.1A5.11,5.11,0,0,1,87.52,42.48Z"/><path class="b" d="M82.41,49.39a6.91,6.91,0,1,1,6.9-6.91A6.91,6.91,0,0,1,82.41,49.39Zm0-10.22a3.32,3.32,0,1,0,3.31,3.31A3.31,3.31,0,0,0,82.41,39.17Z"/><circle class="d" cx="39.12" cy="70.95" r="5.11"/><path class="b" d="M39.12,77.85A6.91,6.91,0,1,1,46,71,6.92,6.92,0,0,1,39.12,77.85Zm0-10.22A3.32,3.32,0,1,0,42.43,71,3.32,3.32,0,0,0,39.12,67.63Z"/></svg>