<svg xmlns="http://www.w3.org/2000/svg" viewBox="0 0 94.39 85.91"><defs><style>.a{fill:#28234d;}.b{fill:#d3202e;}.c{fill:#fff;}</style></defs><title>data-management-analytics</title><polygon class="a" points="62.35 85.91 32.03 85.91 32.03 75.82 35.66 75.82 35.66 82.28 58.72 82.28 58.72 75.82 62.35 75.82 62.35 85.91"/><rect class="a" x="26.23" y="82.27" width="41.93" height="3.63"/><path class="a" d="M94.39,65.11H0V5A5,5,0,0,1,5,0H89.37a5,5,0,0,1,5,5ZM3.63,61.48H90.76V5a1.43,1.43,0,0,0-.41-1h0a1.38,1.38,0,0,0-1-.4H5A1.38,1.38,0,0,0,3.63,5Z"/><path class="a" d="M89.37,75.79H5a5,5,0,0,1-3.56-1.48A4.94,4.94,0,0,1,0,70.77V61.48H94.39v9.29a5,5,0,0,1-5,5ZM3.63,65.11v5.66a1.38,1.38,0,0,0,.4,1,1.42,1.42,0,0,0,1,.41H89.37a1.38,1.38,0,0,0,1-.4,1.39,1.39,0,0,0,.42-1V65.11Z"/><rect class="b" x="9.08" y="9.08" width="76.24" height="46.96"/><path class="c" d="M9.08,28.32V24.69a3.64,3.64,0,0,0,3.63-3.63h3.63A7.27,7.27,0,0,1,9.08,28.32Z"/><path class="c" d="M30.86,28.32a7.27,7.27,0,0,1-7.26-7.26h3.63a3.63,3.63,0,0,0,7.26,0h3.63A7.27,7.27,0,0,1,30.86,28.32Z"/><path class="c" d="M27.23,21.06H23.6a3.63,3.63,0,0,0-7.26,0H12.71a7.26,7.26,0,0,1,14.52,0Z"/><path class="c" d="M52.64,28.32a7.27,7.27,0,0,1-7.26-7.26H49a3.63,3.63,0,1,0,7.26,0H59.9A7.27,7.27,0,0,1,52.64,28.32Z"/><path class="c" d="M49,21.06H45.38a3.63,3.63,0,1,0-7.26,0H34.49a7.26,7.26,0,1,1,14.52,0Z"/><path class="c" d="M74.42,28.32a7.27,7.27,0,0,1-7.26-7.26h3.63a3.63,3.63,0,1,0,7.26,0h3.63A7.27,7.27,0,0,1,74.42,28.32Z"/><path class="c" d="M70.79,21.06H67.16a3.63,3.63,0,1,0-7.26,0H56.27a7.26,7.26,0,0,1,14.52,0Z"/><path class="c" d="M81.68,21.06H78.05a7.27,7.27,0,0,1,7.26-7.26v3.63A3.63,3.63,0,0,0,81.68,21.06Z"/><rect class="a" x="9.08" y="43.4" width="3.63" height="12.64"/><rect class="a" x="16.34" y="47.3" width="3.63" height="8.74"/><rect class="a" x="23.6" y="32.92" width="3.63" height="23.11"/><rect class="a" x="30.86" y="42.17" width="3.63" height="13.87"/><rect class="a" x="38.12" y="36.14" width="3.63" height="19.89"/><rect class="a" x="45.38" y="43.16" width="3.63" height="12.87"/><rect class="a" x="52.64" y="34.33" width="3.63" height="21.7"/><rect class="a" x="59.9" y="38.04" width="3.63" height="18"/><rect class="a" x="67.16" y="42.17" width="3.63" height="13.87"/><rect class="a" x="74.42" y="34.73" width="3.63" height="21.3"/><rect class="a" x="81.68" y="43.4" width="3.63" height="12.64"/></svg>