<svg xmlns="http://www.w3.org/2000/svg" viewBox="0 0 98.34 104.87"><defs><style>.a{fill:#fff;}.b{fill:#28234d;}.c{fill:#d3202e;}</style></defs><rect class="a" x="1.8" y="14.29" width="75.91" height="88.79"/><path class="b" d="M77.71,104.87H1.8A1.79,1.79,0,0,1,0,103.08V14.29a1.8,1.8,0,0,1,1.8-1.8H77.71a1.81,1.81,0,0,1,1.8,1.8v88.79A1.8,1.8,0,0,1,77.71,104.87ZM3.59,101.28H75.91V16.08H3.59Z"/><rect class="a" x="11.28" y="21.25" width="57.99" height="70.77"/><path class="b" d="M69.27,93.82h-58A1.79,1.79,0,0,1,9.48,92V21.25a1.79,1.79,0,0,1,1.8-1.79h58a1.79,1.79,0,0,1,1.79,1.79V92A1.79,1.79,0,0,1,69.27,93.82Zm-56.2-3.59h54.4V23.05H13.07Z"/><path class="c" d="M48.12,10.16a8.37,8.37,0,0,0-16.73,0H17.13V24.52H62.37V10.16Z"/><path class="b" d="M62.37,26.32H17.13a1.8,1.8,0,0,1-1.79-1.8V10.16a1.8,1.8,0,0,1,1.79-1.8H29.75a10.16,10.16,0,0,1,20,0H62.37a1.8,1.8,0,0,1,1.8,1.8V24.52A1.8,1.8,0,0,1,62.37,26.32ZM18.93,22.73H60.58V12H48.12a1.79,1.79,0,0,1-1.8-1.79,6.57,6.57,0,1,0-13.14,0A1.79,1.79,0,0,1,31.39,12H18.93Z"/><path class="b" d="M24.78,34.51a3.63,3.63,0,1,1-3.63-3.62A3.63,3.63,0,0,1,24.78,34.51Z"/><path class="a" d="M31,34.51h0Z"/><path class="b" d="M60.32,36.31H31a1.8,1.8,0,1,1,0-3.59H60.32a1.8,1.8,0,1,1,0,3.59Z"/><path class="b" d="M24.78,46.25a3.63,3.63,0,1,1-3.63-3.63A3.63,3.63,0,0,1,24.78,46.25Z"/><path class="a" d="M31,46.25h0Z"/><path class="b" d="M60.32,48H31a1.8,1.8,0,1,1,0-3.59H60.32a1.8,1.8,0,1,1,0,3.59Z"/><path class="b" d="M24.78,58a3.63,3.63,0,1,1-3.63-3.62A3.63,3.63,0,0,1,24.78,58Z"/><path class="a" d="M31,58h0Z"/><path class="b" d="M60.32,59.78H31a1.8,1.8,0,1,1,0-3.6H60.32a1.8,1.8,0,0,1,0,3.6Z"/><path class="b" d="M24.78,69.72a3.63,3.63,0,1,1-3.63-3.63A3.63,3.63,0,0,1,24.78,69.72Z"/><path class="a" d="M31,69.72h0Z"/><path class="b" d="M60.32,71.51H31a1.8,1.8,0,1,1,0-3.59H60.32a1.8,1.8,0,1,1,0,3.59Z"/><rect class="a" x="51.41" y="62.31" width="27.01" height="6.46" transform="translate(-25.9 81.76) rotate(-55.4)"/><path class="b" d="M59.91,80.29a1.74,1.74,0,0,1-1-.32L53.57,76.3a1.81,1.81,0,0,1-.75-1.15,1.85,1.85,0,0,1,.29-1.35L68.45,51.57a1.78,1.78,0,0,1,2.49-.45l5.32,3.67a1.78,1.78,0,0,1,.46,2.49L61.39,79.51A1.79,1.79,0,0,1,59.91,80.29Zm-2.82-5.92L59.45,76l13.3-19.28-2.37-1.63Z"/><path class="a" d="M76.28,57l-7.39-5.1L87.41,25a4.49,4.49,0,0,1,6.25-1.14h0a4.48,4.48,0,0,1,1.14,6.24Z"/><path class="b" d="M76.28,58.77a1.85,1.85,0,0,1-1-.31l-7.39-5.1a1.8,1.8,0,0,1-.46-2.5L85.94,24a6.28,6.28,0,0,1,10.34,7.14L77.76,58a1.78,1.78,0,0,1-1.16.74A1.73,1.73,0,0,1,76.28,58.77Zm-4.89-7.35,4.43,3.06L93.33,29.1a2.7,2.7,0,0,0,.43-2,2.66,2.66,0,0,0-1.12-1.73,2.7,2.7,0,0,0-3.75.68Z"/><polygon class="a" points="54.59 74.82 51.6 84.84 59.91 78.49 54.59 74.82"/><path class="b" d="M51.6,86.64a1.76,1.76,0,0,1-1-.32,1.79,1.79,0,0,1-.7-2l3-10a1.79,1.79,0,0,1,2.74-1L60.93,77a1.8,1.8,0,0,1,.07,2.9l-8.31,6.35A1.75,1.75,0,0,1,51.6,86.64Zm4-8.93-.7,2.35,2-1.49Z"/><path class="b" d="M87.86,50.68a1.79,1.79,0,0,1-1.48-2.81L94.5,36.1l-1.92-4.43a1.8,1.8,0,0,1,3.3-1.43l2.31,5.35A1.79,1.79,0,0,1,98,37.32L89.34,49.91A1.8,1.8,0,0,1,87.86,50.68Z"/></svg>