<svg xmlns="http://www.w3.org/2000/svg" viewBox="0 0 140.98 75.05"><defs><style>.a{fill:#fff;}.b{fill:#28234d;}.c{fill:#d3202e;}</style></defs><title>transportation</title><polygon class="a" points="112.39 58.17 136.09 42.73 3.23 42.73 11.13 58.17 112.39 58.17"/><path class="b" d="M11.13,60a1.8,1.8,0,0,1-1.6-1L1.63,43.55a1.8,1.8,0,0,1,1.6-2.62H136.09a1.81,1.81,0,0,1,1.72,1.29,1.79,1.79,0,0,1-.74,2l-23.7,15.44a1.79,1.79,0,0,1-2-3L130,44.52H6.17l6.56,12.83A1.8,1.8,0,0,1,12,59.77,1.84,1.84,0,0,1,11.13,60Z"/><rect class="a" x="8.98" y="31.49" width="31.96" height="11.24"/><path class="b" d="M40.93,44.52H9a1.8,1.8,0,0,1-1.8-1.79V31.49A1.81,1.81,0,0,1,9,29.69h32a1.8,1.8,0,0,1,1.8,1.8V42.73A1.79,1.79,0,0,1,40.93,44.52ZM10.77,40.93H39.14V33.28H10.77Z"/><path class="a" d="M29.44,31.47H13.65V26.53a7.9,7.9,0,0,1,7.89-7.9h0a7.9,7.9,0,0,1,7.9,7.9Z"/><path class="b" d="M29.44,33.27H13.65a1.79,1.79,0,0,1-1.8-1.8V26.53a9.7,9.7,0,0,1,19.39,0v4.94A1.79,1.79,0,0,1,29.44,33.27Zm-14-3.59H27.65V26.53a6.11,6.11,0,0,0-12.21,0Z"/><path class="b" d="M129.26,64.27a1.78,1.78,0,0,1-.83-.2l-6.61-3.49a11.53,11.53,0,0,0-10.91.07,15.13,15.13,0,0,1-14.3.08l-.28-.15a11.53,11.53,0,0,0-10.91.07,15.13,15.13,0,0,1-14.3.08l-.28-.15a11.55,11.55,0,0,0-10.92.07,15.13,15.13,0,0,1-14.3.08l-.28-.15a11.53,11.53,0,0,0-10.91.07,15.13,15.13,0,0,1-14.3.08l-.28-.15a11.53,11.53,0,0,0-10.91.07L2.65,64.06A1.8,1.8,0,0,1,.94,60.9l6.28-3.41a15.13,15.13,0,0,1,14.3-.08l.28.14a11.55,11.55,0,0,0,10.92-.06A15.13,15.13,0,0,1,47,57.41l.28.14a11.53,11.53,0,0,0,10.91-.06,15.13,15.13,0,0,1,14.3-.08l.28.14a11.53,11.53,0,0,0,10.91-.06A15.15,15.15,0,0,1,98,57.41l.28.14a11.53,11.53,0,0,0,10.91-.06,15.13,15.13,0,0,1,14.3-.08l6.6,3.48a1.79,1.79,0,0,1-.84,3.38Z"/><path class="b" d="M139.18,75.05a1.83,1.83,0,0,1-.84-.21l-6.6-3.48a11.53,11.53,0,0,0-10.91.06,15.15,15.15,0,0,1-14.31.08l-.28-.14a11.53,11.53,0,0,0-10.91.06A15.13,15.13,0,0,1,81,71.5l-.28-.14a11.53,11.53,0,0,0-10.91.06,15.13,15.13,0,0,1-14.3.08l-.28-.14a11.55,11.55,0,0,0-10.92.06A15.13,15.13,0,0,1,30,71.5l-.28-.14a11.53,11.53,0,0,0-10.91.06l-6.28,3.41a1.79,1.79,0,1,1-1.72-3.15l6.29-3.42a15.13,15.13,0,0,1,14.3-.08l.28.15a11.53,11.53,0,0,0,10.91-.07,15.13,15.13,0,0,1,14.3-.08l.28.15a11.55,11.55,0,0,0,10.92-.07,15.13,15.13,0,0,1,14.3-.08l.28.15a11.53,11.53,0,0,0,10.91-.07,15.13,15.13,0,0,1,14.3-.08l.28.15a11.53,11.53,0,0,0,10.91-.07,15.13,15.13,0,0,1,14.3-.08L140,71.67a1.79,1.79,0,0,1-.84,3.38Z"/><rect class="a" x="54.58" y="1.8" width="22.62" height="40.93"/><path class="b" d="M77.2,44.52H54.58a1.8,1.8,0,0,1-1.8-1.79V1.8A1.8,1.8,0,0,1,54.58,0H77.2A1.8,1.8,0,0,1,79,1.8V42.73A1.8,1.8,0,0,1,77.2,44.52ZM56.37,40.93h19V3.59h-19Z"/><path class="a" d="M54.58,12h0Z"/><path class="b" d="M77.2,13.82H54.58a1.8,1.8,0,1,1,0-3.59H77.2a1.8,1.8,0,1,1,0,3.59Z"/><path class="a" d="M54.58,22h0Z"/><path class="b" d="M77.2,23.75H54.58a1.8,1.8,0,1,1,0-3.59H77.2a1.8,1.8,0,1,1,0,3.59Z"/><path class="a" d="M54.58,32.6h0Z"/><path class="b" d="M77.2,34.4H54.58a1.8,1.8,0,1,1,0-3.59H77.2a1.8,1.8,0,1,1,0,3.59Z"/><rect class="c" x="77.2" y="12.03" width="22.62" height="30.7"/><path class="b" d="M99.82,44.52H77.2a1.79,1.79,0,0,1-1.79-1.79V12a1.8,1.8,0,0,1,1.79-1.8H99.82a1.81,1.81,0,0,1,1.8,1.8v30.7A1.8,1.8,0,0,1,99.82,44.52ZM79,40.93H98V13.82H79Z"/><path class="a" d="M77.2,22h0Z"/><path class="b" d="M99.82,23.75H77.2a1.8,1.8,0,0,1,0-3.59H99.82a1.8,1.8,0,1,1,0,3.59Z"/><path class="a" d="M77.2,32.6h0Z"/><path class="b" d="M99.82,34.4H77.2a1.8,1.8,0,0,1,0-3.59H99.82a1.8,1.8,0,1,1,0,3.59Z"/><rect class="a" x="99.82" y="12.03" width="22.62" height="30.7"/><path class="b" d="M122.44,44.52H99.82A1.79,1.79,0,0,1,98,42.73V12a1.8,1.8,0,0,1,1.79-1.8h22.62a1.8,1.8,0,0,1,1.8,1.8v30.7A1.79,1.79,0,0,1,122.44,44.52Zm-20.82-3.59h19V13.82h-19Z"/><path class="a" d="M99.82,22h0Z"/><path class="b" d="M122.44,23.75H99.82a1.8,1.8,0,0,1,0-3.59h22.62a1.8,1.8,0,1,1,0,3.59Z"/><path class="a" d="M99.82,32.6h0Z"/><path class="b" d="M122.44,34.4H99.82a1.8,1.8,0,0,1,0-3.59h22.62a1.8,1.8,0,1,1,0,3.59Z"/></svg>